# xmcd
#
# Track frame offsets:
# 150
# 20489
# 37189
# 52048
# 69433
# 84696
# 98679
# 117595
# 128063
# 142434
# 155246
# 166917
# 183285
#
# Disc length: 2633 seconds
#
#
# Revision: 0
# Processed by: cddbd v1.4PL0 Copyright (c) Steve Scherf et al.
# Submitted via: FreeRIP 2.52 
#
DISCID=bf0a470d
DTITLE=Portugal - Ao som dos Andes
DYEAR=1900
DGENRE=Latin
TTITLE0=Cancao do Mar
TTITLE1=Po de Arroz
TTITLE2=Maio Maduro Maio
TTITLE3=Perdidamente
TTITLE4=Menina estas a Janela
TTITLE5=Os indios da Meia Praia
TTITLE6=Jardins Proibidos
TTITLE7=Oliveira da Serra
TTITLE8=Rama da Oliveira
TTITLE9=Laurindinha
TTITLE10=Postal dos Correios
TTITLE11=Saias do Alentejo
TTITLE12=Tudo isto e Fado
EXTD=
EXTT0=
EXTT1=
EXTT2=
EXTT3=
EXTT4=
EXTT5=
EXTT6=
EXTT7=
EXTT8=
EXTT9=
EXTT10=
EXTT11=
EXTT12=
PLAYORDER=
